# xmcd CD Database Entry
#
# Track frame offsets:
# 150
# 13370
# 30482
# 44147
# 55870
# 70865
# 91767
# 135180
# 159062
# 169075
# 181200
#
# Disc length: 2568 seconds
#
# Revision: 1
# Processed by: cddbd v1.4PL0 Copyright (c) Steve Scherf et al.
# Submitted via: tcd 2.0b
#
DISCID=830a060b
DTITLE=King Biscuit Boy With Crowbar - Official Music
DYEAR=1900
DGENRE=
TTITLE0=Highway 61
TTITLE1=Don't Go No Further
TTITLE2=Unseen Eye
TTITLE3=I'm Just A Lonely Guy
TTITLE4=Key To The Highway
TTITLE5=Corrina
TTITLE6=Biscuit's Boogie
TTITLE7=Hoy Hoy Hoy
TTITLE8=Badly Bent
TTITLE9=Cookin' Little Baby
TTITLE10=Shout Bama Lama
EXTD=
EXTT0=
EXTT1=
EXTT2=
EXTT3=
EXTT4=
EXTT5=
EXTT6=
EXTT7=
EXTT8=
EXTT9=
EXTT10=
PLAYORDER=
